<svg width="269" height="28" viewBox="0 0 269 28" fill="none" xmlns="http://www.w3.org/2000/svg">
<path d="M21.5703 13.623V23.7656C21.1719 24.2461 20.5566 24.7676 19.7246 25.3301C18.8926 25.8809 17.8203 26.3555 16.5078 26.7539C15.1953 27.1523 13.6074 27.3516 11.7441 27.3516C10.0918 27.3516 8.58594 27.082 7.22656 26.543C5.86719 25.9922 4.69531 25.1895 3.71094 24.1348C2.73828 23.0801 1.98828 21.791 1.46094 20.2676C0.933594 18.7324 0.669922 16.9805 0.669922 15.0117V13.4121C0.669922 11.4434 0.921875 9.69141 1.42578 8.15625C1.94141 6.62109 2.67383 5.32617 3.62305 4.27148C4.57227 3.2168 5.70312 2.41406 7.01562 1.86328C8.32812 1.3125 9.78711 1.03711 11.3926 1.03711C13.6191 1.03711 15.4473 1.40039 16.877 2.12695C18.3066 2.8418 19.3965 3.83789 20.1465 5.11523C20.9082 6.38086 21.377 7.83398 21.5527 9.47461H16.4375C16.3086 8.60742 16.0625 7.85156 15.6992 7.20703C15.3359 6.5625 14.8145 6.05859 14.1348 5.69531C13.4668 5.33203 12.5996 5.15039 11.5332 5.15039C10.6543 5.15039 9.86914 5.33203 9.17773 5.69531C8.49805 6.04688 7.92383 6.56836 7.45508 7.25977C6.98633 7.95117 6.62891 8.80664 6.38281 9.82617C6.13672 10.8457 6.01367 12.0293 6.01367 13.377V15.0117C6.01367 16.3477 6.14258 17.5312 6.40039 18.5625C6.6582 19.582 7.03906 20.4434 7.54297 21.1465C8.05859 21.8379 8.69141 22.3594 9.44141 22.7109C10.1914 23.0625 11.0645 23.2383 12.0605 23.2383C12.8926 23.2383 13.584 23.168 14.1348 23.0273C14.6973 22.8867 15.1484 22.7168 15.4883 22.5176C15.8398 22.3066 16.1094 22.1074 16.2969 21.9199V17.3848H11.4805V13.623H21.5703ZM36.7578 22.4473V7.98047H41.8203V27H37.0566L36.7578 22.4473ZM37.3203 18.5449L38.8145 18.5098C38.8145 19.7754 38.668 20.9531 38.375 22.043C38.082 23.1211 37.6426 24.0586 37.0566 24.8555C36.4707 25.6406 35.7324 26.2559 34.8418 26.7012C33.9512 27.1348 32.9023 27.3516 31.6953 27.3516C30.7695 27.3516 29.9141 27.2227 29.1289 26.9648C28.3555 26.6953 27.6875 26.2793 27.125 25.7168C26.5742 25.1426 26.1406 24.4102 25.8242 23.5195C25.5195 22.6172 25.3672 21.5332 25.3672 20.2676V7.98047H30.4297V20.3027C30.4297 20.8652 30.4941 21.3398 30.623 21.7266C30.7637 22.1133 30.957 22.4297 31.2031 22.6758C31.4492 22.9219 31.7363 23.0977 32.0645 23.2031C32.4043 23.3086 32.7793 23.3613 33.1895 23.3613C34.2324 23.3613 35.0527 23.1504 35.6504 22.7285C36.2598 22.3066 36.6875 21.7324 36.9336 21.0059C37.1914 20.2676 37.3203 19.4473 37.3203 18.5449ZM55.9707 21.7441C55.9707 21.3809 55.8652 21.0527 55.6543 20.7598C55.4434 20.4668 55.0508 20.1973 54.4766 19.9512C53.9141 19.6934 53.0996 19.459 52.0332 19.248C51.0723 19.0371 50.1758 18.7734 49.3438 18.457C48.5234 18.1289 47.8086 17.7363 47.1992 17.2793C46.6016 16.8223 46.1328 16.2832 45.793 15.6621C45.4531 15.0293 45.2832 14.3086 45.2832 13.5C45.2832 12.7031 45.4531 11.9531 45.793 11.25C46.1445 10.5469 46.6426 9.92578 47.2871 9.38672C47.9434 8.83594 48.7402 8.4082 49.6777 8.10352C50.627 7.78711 51.6934 7.62891 52.877 7.62891C54.5293 7.62891 55.9473 7.89258 57.1309 8.41992C58.3262 8.94727 59.2402 9.67383 59.873 10.5996C60.5176 11.5137 60.8398 12.5566 60.8398 13.7285H55.7773C55.7773 13.2363 55.6719 12.7969 55.4609 12.4102C55.2617 12.0117 54.9453 11.7012 54.5117 11.4785C54.0898 11.2441 53.5391 11.127 52.8594 11.127C52.2969 11.127 51.8105 11.2266 51.4004 11.4258C50.9902 11.6133 50.6738 11.8711 50.4512 12.1992C50.2402 12.5156 50.1348 12.8672 50.1348 13.2539C50.1348 13.5469 50.1934 13.8105 50.3105 14.0449C50.4395 14.2676 50.6445 14.4727 50.9258 14.6602C51.207 14.8477 51.5703 15.0234 52.0156 15.1875C52.4727 15.3398 53.0352 15.4805 53.7031 15.6094C55.0742 15.8906 56.2988 16.2598 57.377 16.7168C58.4551 17.1621 59.3105 17.7715 59.9434 18.5449C60.5762 19.3066 60.8926 20.3086 60.8926 21.5508C60.8926 22.3945 60.7051 23.168 60.3301 23.8711C59.9551 24.5742 59.416 25.1895 58.7129 25.7168C58.0098 26.2324 57.166 26.6367 56.1816 26.9297C55.209 27.2109 54.1133 27.3516 52.8945 27.3516C51.125 27.3516 49.625 27.0352 48.3945 26.4023C47.1758 25.7695 46.25 24.9668 45.6172 23.9941C44.9961 23.0098 44.6855 22.002 44.6855 20.9707H49.4844C49.5078 21.6621 49.6836 22.2188 50.0117 22.6406C50.3516 23.0625 50.7793 23.3672 51.2949 23.5547C51.8223 23.7422 52.3906 23.8359 53 23.8359C53.6562 23.8359 54.2012 23.748 54.6348 23.5723C55.0684 23.3848 55.3965 23.1387 55.6191 22.834C55.8535 22.5176 55.9707 22.1543 55.9707 21.7441ZM73.4961 7.98047V11.5664H62.4219V7.98047H73.4961ZM65.1641 3.28711H70.2266V21.2695C70.2266 21.8203 70.2969 22.2422 70.4375 22.5352C70.5898 22.8281 70.8125 23.0332 71.1055 23.1504C71.3984 23.2559 71.7676 23.3086 72.2129 23.3086C72.5293 23.3086 72.8105 23.2969 73.0566 23.2734C73.3145 23.2383 73.5312 23.2031 73.707 23.168L73.7246 26.8945C73.291 27.0352 72.8223 27.1465 72.3184 27.2285C71.8145 27.3105 71.2578 27.3516 70.6484 27.3516C69.5352 27.3516 68.5625 27.1699 67.7305 26.8066C66.9102 26.4316 66.2773 25.834 65.832 25.0137C65.3867 24.1934 65.1641 23.1152 65.1641 21.7793V3.28711ZM86.6445 22.7109V14.2383C86.6445 13.6289 86.5449 13.1074 86.3457 12.6738C86.1465 12.2285 85.8359 11.8828 85.4141 11.6367C85.0039 11.3906 84.4707 11.2676 83.8145 11.2676C83.252 11.2676 82.7656 11.3672 82.3555 11.5664C81.9453 11.7539 81.6289 12.0293 81.4062 12.3926C81.1836 12.7441 81.0723 13.1602 81.0723 13.6406H76.0098C76.0098 12.832 76.1973 12.0645 76.5723 11.3379C76.9473 10.6113 77.4922 9.97266 78.207 9.42188C78.9219 8.85938 79.7715 8.41992 80.7559 8.10352C81.752 7.78711 82.8652 7.62891 84.0957 7.62891C85.5723 7.62891 86.8848 7.875 88.0332 8.36719C89.1816 8.85938 90.084 9.59766 90.7402 10.582C91.4082 11.5664 91.7422 12.7969 91.7422 14.2734V22.4121C91.7422 23.4551 91.8066 24.3105 91.9355 24.9785C92.0645 25.6348 92.252 26.209 92.498 26.7012V27H87.3828C87.1367 26.4844 86.9492 25.8398 86.8203 25.0664C86.7031 24.2812 86.6445 23.4961 86.6445 22.7109ZM87.3125 15.416L87.3477 18.2812H84.5176C83.8496 18.2812 83.2695 18.3574 82.7773 18.5098C82.2852 18.6621 81.8809 18.8789 81.5645 19.1602C81.248 19.4297 81.0137 19.7461 80.8613 20.1094C80.7207 20.4727 80.6504 20.8711 80.6504 21.3047C80.6504 21.7383 80.75 22.1309 80.9492 22.4824C81.1484 22.8223 81.4355 23.0918 81.8105 23.291C82.1855 23.4785 82.625 23.5723 83.1289 23.5723C83.8906 23.5723 84.5527 23.4199 85.1152 23.1152C85.6777 22.8105 86.1113 22.4355 86.416 21.9902C86.7324 21.5449 86.8965 21.123 86.9082 20.7246L88.2441 22.8691C88.0566 23.3496 87.7988 23.8477 87.4707 24.3633C87.1543 24.8789 86.75 25.3652 86.2578 25.8223C85.7656 26.2676 85.1738 26.6367 84.4824 26.9297C83.791 27.2109 82.9707 27.3516 82.0215 27.3516C80.8145 27.3516 79.7188 27.1113 78.7344 26.6309C77.7617 26.1387 76.9883 25.4648 76.4141 24.6094C75.8516 23.7422 75.5703 22.7578 75.5703 21.6562C75.5703 20.6602 75.7578 19.7754 76.1328 19.002C76.5078 18.2285 77.0586 17.5781 77.7852 17.0508C78.5234 16.5117 79.4434 16.1074 80.5449 15.8379C81.6465 15.5566 82.9238 15.416 84.377 15.416H87.3125ZM101.832 23.3086L106.051 7.98047H111.342L104.926 27H101.727L101.832 23.3086ZM98.9316 7.98047L103.168 23.3262L103.256 27H100.039L93.623 7.98047H98.9316ZM112.52 17.6836V17.3145C112.52 15.9199 112.719 14.6367 113.117 13.4648C113.516 12.2812 114.096 11.2559 114.857 10.3887C115.619 9.52148 116.557 8.84766 117.67 8.36719C118.783 7.875 120.061 7.62891 121.502 7.62891C122.943 7.62891 124.227 7.875 125.352 8.36719C126.477 8.84766 127.42 9.52148 128.182 10.3887C128.955 11.2559 129.541 12.2812 129.939 13.4648C130.338 14.6367 130.537 15.9199 130.537 17.3145V17.6836C130.537 19.0664 130.338 20.3496 129.939 21.5332C129.541 22.7051 128.955 23.7305 128.182 24.6094C127.42 25.4766 126.482 26.1504 125.369 26.6309C124.256 27.1113 122.979 27.3516 121.537 27.3516C120.096 27.3516 118.812 27.1113 117.688 26.6309C116.574 26.1504 115.631 25.4766 114.857 24.6094C114.096 23.7305 113.516 22.7051 113.117 21.5332C112.719 20.3496 112.52 19.0664 112.52 17.6836ZM117.582 17.3145V17.6836C117.582 18.4805 117.652 19.2246 117.793 19.916C117.934 20.6074 118.156 21.2168 118.461 21.7441C118.777 22.2598 119.188 22.6641 119.691 22.957C120.195 23.25 120.811 23.3965 121.537 23.3965C122.24 23.3965 122.844 23.25 123.348 22.957C123.852 22.6641 124.256 22.2598 124.561 21.7441C124.865 21.2168 125.088 20.6074 125.229 19.916C125.381 19.2246 125.457 18.4805 125.457 17.6836V17.3145C125.457 16.541 125.381 15.8145 125.229 15.1348C125.088 14.4434 124.859 13.834 124.543 13.3066C124.238 12.7676 123.834 12.3457 123.33 12.041C122.826 11.7363 122.217 11.584 121.502 11.584C120.787 11.584 120.178 11.7363 119.674 12.041C119.182 12.3457 118.777 12.7676 118.461 13.3066C118.156 13.834 117.934 14.4434 117.793 15.1348C117.652 15.8145 117.582 16.541 117.582 17.3145ZM145.338 1.40625H149.803L156.377 20.1973L162.951 1.40625H167.416L158.17 27H154.584L145.338 1.40625ZM142.93 1.40625H147.377L148.186 19.7227V27H142.93V1.40625ZM165.377 1.40625H169.842V27H164.568V19.7227L165.377 1.40625ZM182.902 27.3516C181.426 27.3516 180.102 27.1172 178.93 26.6484C177.758 26.168 176.762 25.5059 175.941 24.6621C175.133 23.8184 174.512 22.8398 174.078 21.7266C173.645 20.6016 173.428 19.4062 173.428 18.1406V17.4375C173.428 15.9961 173.633 14.6777 174.043 13.4824C174.453 12.2871 175.039 11.25 175.801 10.3711C176.574 9.49219 177.512 8.81836 178.613 8.34961C179.715 7.86914 180.957 7.62891 182.34 7.62891C183.688 7.62891 184.883 7.85156 185.926 8.29688C186.969 8.74219 187.842 9.375 188.545 10.1953C189.26 11.0156 189.799 12 190.162 13.1484C190.525 14.2852 190.707 15.5508 190.707 16.9453V19.0547H175.59V15.6797H185.732V15.293C185.732 14.5898 185.604 13.9629 185.346 13.4121C185.1 12.8496 184.725 12.4043 184.221 12.0762C183.717 11.748 183.072 11.584 182.287 11.584C181.619 11.584 181.045 11.7305 180.564 12.0234C180.084 12.3164 179.691 12.7266 179.387 13.2539C179.094 13.7812 178.871 14.4023 178.719 15.1172C178.578 15.8203 178.508 16.5938 178.508 17.4375V18.1406C178.508 18.9023 178.613 19.6055 178.824 20.25C179.047 20.8945 179.357 21.4512 179.756 21.9199C180.166 22.3887 180.658 22.752 181.232 23.0098C181.818 23.2676 182.48 23.3965 183.219 23.3965C184.133 23.3965 184.982 23.2207 185.768 22.8691C186.564 22.5059 187.25 21.9609 187.824 21.2344L190.285 23.9062C189.887 24.4805 189.342 25.0312 188.65 25.5586C187.971 26.0859 187.15 26.5195 186.189 26.8594C185.229 27.1875 184.133 27.3516 182.902 27.3516ZM198.547 12.041V27H193.484V7.98047H198.23L198.547 12.041ZM197.809 16.8223H196.438C196.438 15.416 196.619 14.1504 196.982 13.0254C197.346 11.8887 197.855 10.9219 198.512 10.125C199.168 9.31641 199.947 8.70117 200.85 8.2793C201.764 7.8457 202.783 7.62891 203.908 7.62891C204.799 7.62891 205.613 7.75781 206.352 8.01562C207.09 8.27344 207.723 8.68359 208.25 9.24609C208.789 9.80859 209.199 10.5527 209.48 11.4785C209.773 12.4043 209.92 13.5352 209.92 14.8711V27H204.822V14.8535C204.822 14.0098 204.705 13.3535 204.471 12.8848C204.236 12.416 203.891 12.0879 203.434 11.9004C202.988 11.7012 202.438 11.6016 201.781 11.6016C201.102 11.6016 200.51 11.7363 200.006 12.0059C199.514 12.2754 199.104 12.6504 198.775 13.1309C198.459 13.5996 198.219 14.1504 198.055 14.7832C197.891 15.416 197.809 16.0957 197.809 16.8223ZM225.002 22.8516V0H230.1V27H225.512L225.002 22.8516ZM212.979 17.7188V17.3496C212.979 15.8965 213.143 14.5781 213.471 13.3945C213.799 12.1992 214.279 11.1738 214.912 10.3184C215.545 9.46289 216.324 8.80078 217.25 8.33203C218.176 7.86328 219.23 7.62891 220.414 7.62891C221.527 7.62891 222.5 7.86328 223.332 8.33203C224.176 8.80078 224.891 9.46875 225.477 10.3359C226.074 11.1914 226.555 12.2051 226.918 13.377C227.281 14.5371 227.545 15.8086 227.709 17.1914V18C227.545 19.3242 227.281 20.5547 226.918 21.6914C226.555 22.8281 226.074 23.8242 225.477 24.6797C224.891 25.5234 224.176 26.1797 223.332 26.6484C222.488 27.1172 221.504 27.3516 220.379 27.3516C219.195 27.3516 218.141 27.1113 217.215 26.6309C216.301 26.1504 215.527 25.4766 214.895 24.6094C214.273 23.7422 213.799 22.7227 213.471 21.5508C213.143 20.3789 212.979 19.1016 212.979 17.7188ZM218.041 17.3496V17.7188C218.041 18.5039 218.1 19.2363 218.217 19.916C218.346 20.5957 218.551 21.1992 218.832 21.7266C219.125 22.2422 219.5 22.6465 219.957 22.9395C220.426 23.2207 220.994 23.3613 221.662 23.3613C222.529 23.3613 223.244 23.168 223.807 22.7812C224.369 22.3828 224.797 21.8379 225.09 21.1465C225.395 20.4551 225.57 19.6582 225.617 18.7559V16.4531C225.582 15.7148 225.477 15.0527 225.301 14.4668C225.137 13.8691 224.891 13.3594 224.562 12.9375C224.246 12.5156 223.848 12.1875 223.367 11.9531C222.898 11.7188 222.342 11.6016 221.697 11.6016C221.041 11.6016 220.479 11.7539 220.01 12.0586C219.541 12.3516 219.16 12.7559 218.867 13.2715C218.586 13.7871 218.375 14.3965 218.234 15.0996C218.105 15.791 218.041 16.541 218.041 17.3496ZM242.809 27.3516C241.332 27.3516 240.008 27.1172 238.836 26.6484C237.664 26.168 236.668 25.5059 235.848 24.6621C235.039 23.8184 234.418 22.8398 233.984 21.7266C233.551 20.6016 233.334 19.4062 233.334 18.1406V17.4375C233.334 15.9961 233.539 14.6777 233.949 13.4824C234.359 12.2871 234.945 11.25 235.707 10.3711C236.48 9.49219 237.418 8.81836 238.52 8.34961C239.621 7.86914 240.863 7.62891 242.246 7.62891C243.594 7.62891 244.789 7.85156 245.832 8.29688C246.875 8.74219 247.748 9.375 248.451 10.1953C249.166 11.0156 249.705 12 250.068 13.1484C250.432 14.2852 250.613 15.5508 250.613 16.9453V19.0547H235.496V15.6797H245.639V15.293C245.639 14.5898 245.51 13.9629 245.252 13.4121C245.006 12.8496 244.631 12.4043 244.127 12.0762C243.623 11.748 242.979 11.584 242.193 11.584C241.525 11.584 240.951 11.7305 240.471 12.0234C239.99 12.3164 239.598 12.7266 239.293 13.2539C239 13.7812 238.777 14.4023 238.625 15.1172C238.484 15.8203 238.414 16.5938 238.414 17.4375V18.1406C238.414 18.9023 238.52 19.6055 238.73 20.25C238.953 20.8945 239.264 21.4512 239.662 21.9199C240.072 22.3887 240.564 22.752 241.139 23.0098C241.725 23.2676 242.387 23.3965 243.125 23.3965C244.039 23.3965 244.889 23.2207 245.674 22.8691C246.471 22.5059 247.156 21.9609 247.73 21.2344L250.191 23.9062C249.793 24.4805 249.248 25.0312 248.557 25.5586C247.877 26.0859 247.057 26.5195 246.096 26.8594C245.135 27.1875 244.039 27.3516 242.809 27.3516ZM263.779 21.7441C263.779 21.3809 263.674 21.0527 263.463 20.7598C263.252 20.4668 262.859 20.1973 262.285 19.9512C261.723 19.6934 260.908 19.459 259.842 19.248C258.881 19.0371 257.984 18.7734 257.152 18.457C256.332 18.1289 255.617 17.7363 255.008 17.2793C254.41 16.8223 253.941 16.2832 253.602 15.6621C253.262 15.0293 253.092 14.3086 253.092 13.5C253.092 12.7031 253.262 11.9531 253.602 11.25C253.953 10.5469 254.451 9.92578 255.096 9.38672C255.752 8.83594 256.549 8.4082 257.486 8.10352C258.436 7.78711 259.502 7.62891 260.686 7.62891C262.338 7.62891 263.756 7.89258 264.939 8.41992C266.135 8.94727 267.049 9.67383 267.682 10.5996C268.326 11.5137 268.648 12.5566 268.648 13.7285H263.586C263.586 13.2363 263.48 12.7969 263.27 12.4102C263.07 12.0117 262.754 11.7012 262.32 11.4785C261.898 11.2441 261.348 11.127 260.668 11.127C260.105 11.127 259.619 11.2266 259.209 11.4258C258.799 11.6133 258.482 11.8711 258.26 12.1992C258.049 12.5156 257.943 12.8672 257.943 13.2539C257.943 13.5469 258.002 13.8105 258.119 14.0449C258.248 14.2676 258.453 14.4727 258.734 14.6602C259.016 14.8477 259.379 15.0234 259.824 15.1875C260.281 15.3398 260.844 15.4805 261.512 15.6094C262.883 15.8906 264.107 16.2598 265.186 16.7168C266.264 17.1621 267.119 17.7715 267.752 18.5449C268.385 19.3066 268.701 20.3086 268.701 21.5508C268.701 22.3945 268.514 23.168 268.139 23.8711C267.764 24.5742 267.225 25.1895 266.521 25.7168C265.818 26.2324 264.975 26.6367 263.99 26.9297C263.018 27.2109 261.922 27.3516 260.703 27.3516C258.934 27.3516 257.434 27.0352 256.203 26.4023C254.984 25.7695 254.059 24.9668 253.426 23.9941C252.805 23.0098 252.494 22.002 252.494 20.9707H257.293C257.316 21.6621 257.492 22.2188 257.82 22.6406C258.16 23.0625 258.588 23.3672 259.104 23.5547C259.631 23.7422 260.199 23.8359 260.809 23.8359C261.465 23.8359 262.01 23.748 262.443 23.5723C262.877 23.3848 263.205 23.1387 263.428 22.834C263.662 22.5176 263.779 22.1543 263.779 21.7441Z" fill="white"/>
</svg>
